<?xml version="1.0" encoding="utf-8" standalone="no"?>
<!DOCTYPE svg PUBLIC "-//W3C//DTD SVG 1.1//EN"
  "http://www.w3.org/Graphics/SVG/1.1/DTD/svg11.dtd">
<svg xmlns:xlink="http://www.w3.org/1999/xlink" width="623.622047pt" height="198.425197pt" viewBox="0 0 623.622047 198.425197" xmlns="http://www.w3.org/2000/svg" version="1.1">
 <metadata>
  <rdf:RDF xmlns:dc="http://purl.org/dc/elements/1.1/" xmlns:cc="http://creativecommons.org/ns#" xmlns:rdf="http://www.w3.org/1999/02/22-rdf-syntax-ns#">
   <cc:Work>
    <dc:type rdf:resource="http://purl.org/dc/dcmitype/StillImage"/>
    <dc:date>2025-09-15T16:10:15.873750</dc:date>
    <dc:format>image/svg+xml</dc:format>
    <dc:creator>
     <cc:Agent>
      <dc:title>Matplotlib v3.10.0, https://matplotlib.org/</dc:title>
     </cc:Agent>
    </dc:creator>
   </cc:Work>
  </rdf:RDF>
 </metadata>
 <defs>
  <style type="text/css">*{stroke-linejoin: round; stroke-linecap: butt}</style>
 </defs>
 <g id="figure_1">
  <g id="patch_1">
   <path d="M 0 198.425197 
L 623.622047 198.425197 
L 623.622047 0 
L 0 0 
z
" style="fill: #ffffff"/>
  </g>
  <g id="axes_1">
   <g id="patch_2">
    <path d="M 24.19 170.545197 
L 311.356024 170.545197 
L 311.356024 36.24 
L 24.19 36.24 
z
" style="fill: #ffffff"/>
   </g>
   <g id="matplotlib.axis_1">
    <g id="xtick_1">
     <g id="line2d_1">
      <defs>
       <path id="mc6d8fe3921" d="M 0 0 
L 0 3.5 
" style="stroke: #000000; stroke-width: 0.8"/>
      </defs>
      <g>
       <use xlink:href="#mc6d8fe3921" x="24.19" y="170.545197" style="stroke: #000000; stroke-width: 0.8"/>
      </g>
     </g>
     <g id="text_1">
      <text style="font-size: 10px; font-family: 'DejaVu Sans', 'Bitstream Vera Sans', 'Computer Modern Sans Serif', 'Lucida Grande', 'Verdana', 'Geneva', 'Lucid', 'Arial', 'Helvetica', 'Avant Garde', sans-serif; text-anchor: start" x="24.19" y="185.143634" transform="rotate(-0 24.19 185.143634)">-1.0</text>
     </g>
    </g>
    <g id="xtick_2">
     <g id="line2d_2">
      <g>
       <use xlink:href="#mc6d8fe3921" x="167.773012" y="170.545197" style="stroke: #000000; stroke-width: 0.8"/>
      </g>
     </g>
     <g id="text_2">
      <text style="font-size: 10px; font-family: 'DejaVu Sans', 'Bitstream Vera Sans', 'Computer Modern Sans Serif', 'Lucida Grande', 'Verdana', 'Geneva', 'Lucid', 'Arial', 'Helvetica', 'Avant Garde', sans-serif; text-anchor: middle" x="167.773012" y="185.143634" transform="rotate(-0 167.773012 185.143634)">TSS</text>
     </g>
    </g>
    <g id="xtick_3">
     <g id="line2d_3">
      <g>
       <use xlink:href="#mc6d8fe3921" x="311.356024" y="170.545197" style="stroke: #000000; stroke-width: 0.8"/>
      </g>
     </g>
     <g id="text_3">
      <text style="font-size: 10px; font-family: 'DejaVu Sans', 'Bitstream Vera Sans', 'Computer Modern Sans Serif', 'Lucida Grande', 'Verdana', 'Geneva', 'Lucid', 'Arial', 'Helvetica', 'Avant Garde', sans-serif; text-anchor: end" x="311.356024" y="185.143634" transform="rotate(-0 311.356024 185.143634)">1.0Kb</text>
     </g>
    </g>
   </g>
   <g id="matplotlib.axis_2">
    <g id="ytick_1">
     <g id="line2d_4">
      <defs>
       <path id="m97711af8bd" d="M 0 0 
L -3.5 0 
" style="stroke: #000000; stroke-width: 0.8"/>
      </defs>
      <g>
       <use xlink:href="#m97711af8bd" x="24.19" y="146.334779" style="stroke: #000000; stroke-width: 0.8"/>
      </g>
     </g>
     <g id="text_4">
      <text style="font-size: 10px; font-family: 'DejaVu Sans', 'Bitstream Vera Sans', 'Computer Modern Sans Serif', 'Lucida Grande', 'Verdana', 'Geneva', 'Lucid', 'Arial', 'Helvetica', 'Avant Garde', sans-serif; text-anchor: end" x="17.19" y="150.133997" transform="rotate(-0 17.19 150.133997)">1</text>
     </g>
    </g>
    <g id="ytick_2">
     <g id="line2d_5">
      <g>
       <use xlink:href="#m97711af8bd" x="24.19" y="121.177926" style="stroke: #000000; stroke-width: 0.8"/>
      </g>
     </g>
     <g id="text_5">
      <text style="font-size: 10px; font-family: 'DejaVu Sans', 'Bitstream Vera Sans', 'Computer Modern Sans Serif', 'Lucida Grande', 'Verdana', 'Geneva', 'Lucid', 'Arial', 'Helvetica', 'Avant Garde', sans-serif; text-anchor: end" x="17.19" y="124.977145" transform="rotate(-0 17.19 124.977145)">2</text>
     </g>
    </g>
    <g id="ytick_3">
     <g id="line2d_6">
      <g>
       <use xlink:href="#m97711af8bd" x="24.19" y="96.021074" style="stroke: #000000; stroke-width: 0.8"/>
      </g>
     </g>
     <g id="text_6">
      <text style="font-size: 10px; font-family: 'DejaVu Sans', 'Bitstream Vera Sans', 'Computer Modern Sans Serif', 'Lucida Grande', 'Verdana', 'Geneva', 'Lucid', 'Arial', 'Helvetica', 'Avant Garde', sans-serif; text-anchor: end" x="17.19" y="99.820293" transform="rotate(-0 17.19 99.820293)">3</text>
     </g>
    </g>
    <g id="ytick_4">
     <g id="line2d_7">
      <g>
       <use xlink:href="#m97711af8bd" x="24.19" y="70.864222" style="stroke: #000000; stroke-width: 0.8"/>
      </g>
     </g>
     <g id="text_7">
      <text style="font-size: 10px; font-family: 'DejaVu Sans', 'Bitstream Vera Sans', 'Computer Modern Sans Serif', 'Lucida Grande', 'Verdana', 'Geneva', 'Lucid', 'Arial', 'Helvetica', 'Avant Garde', sans-serif; text-anchor: end" x="17.19" y="74.663441" transform="rotate(-0 17.19 74.663441)">4</text>
     </g>
    </g>
    <g id="ytick_5">
     <g id="line2d_8">
      <g>
       <use xlink:href="#m97711af8bd" x="24.19" y="45.70737" style="stroke: #000000; stroke-width: 0.8"/>
      </g>
     </g>
     <g id="text_8">
      <text style="font-size: 10px; font-family: 'DejaVu Sans', 'Bitstream Vera Sans', 'Computer Modern Sans Serif', 'Lucida Grande', 'Verdana', 'Geneva', 'Lucid', 'Arial', 'Helvetica', 'Avant Garde', sans-serif; text-anchor: end" x="17.19" y="49.506589" transform="rotate(-0 17.19 49.506589)">5</text>
     </g>
    </g>
   </g>
   <g id="line2d_9">
    <path d="M 24.19 155.914496 
L 25.633045 156.006288 
L 27.076091 156.473878 
L 28.519136 156.756709 
L 34.291317 156.775143 
L 35.734363 156.884981 
L 40.063499 157.837418 
L 41.506544 158.115931 
L 54.493952 158.900082 
L 55.936998 159.298632 
L 57.380043 159.367277 
L 58.823088 159.235867 
L 60.266134 159.302946 
L 67.48136 160.642948 
L 71.810496 160.828493 
L 73.253542 160.581754 
L 74.696587 160.54998 
L 76.139632 160.257736 
L 77.582678 160.096512 
L 79.025723 160.333837 
L 81.911814 160.166338 
L 83.354859 160.292649 
L 86.24095 159.476724 
L 89.127041 158.913812 
L 90.570086 158.912635 
L 92.013131 159.144076 
L 96.342267 158.990696 
L 99.228358 158.491336 
L 102.114449 158.093571 
L 103.557494 157.713068 
L 105.000539 157.660503 
L 107.88663 157.833888 
L 110.772721 158.3815 
L 112.215766 158.239889 
L 113.658811 157.983343 
L 116.544902 156.4068 
L 117.987947 156.130248 
L 120.874038 155.394738 
L 123.760129 155.17585 
L 125.203174 154.966378 
L 126.646219 154.934993 
L 129.53231 154.40974 
L 132.418401 154.515264 
L 133.861446 154.649421 
L 135.304492 155.139761 
L 139.633628 154.789462 
L 141.076673 154.563514 
L 142.519718 154.731016 
L 145.405809 155.337859 
L 146.848854 155.276665 
L 148.2919 154.978144 
L 156.950172 151.467703 
L 159.836262 150.026885 
L 161.279308 149.197229 
L 162.722353 148.118481 
L 164.165398 146.57999 
L 165.608444 144.375813 
L 167.051489 141.285492 
L 168.494534 137.643242 
L 171.380625 131.728558 
L 172.823671 129.465541 
L 175.709761 126.720417 
L 177.152807 125.226255 
L 180.038897 122.985985 
L 181.481943 122.214386 
L 182.924988 121.756607 
L 184.368033 121.063071 
L 185.811079 120.027473 
L 188.697169 118.456806 
L 190.140215 117.377667 
L 191.58326 115.952936 
L 193.026305 115.373939 
L 194.469351 115.242136 
L 195.912396 116.28754 
L 197.355441 117.511829 
L 198.798487 117.599302 
L 200.241532 116.761411 
L 204.570668 113.605579 
L 206.013713 112.175355 
L 208.899804 108.540948 
L 210.342849 106.503484 
L 211.785895 104.006674 
L 216.115031 94.727473 
L 217.558076 89.881731 
L 220.444167 81.63185 
L 223.330258 70.814946 
L 224.773303 66.610569 
L 229.102439 50.266933 
L 230.545484 46.174753 
L 231.98853 43.916436 
L 233.431575 42.172785 
L 234.87462 42.276349 
L 239.203756 48.029019 
L 240.646802 50.891434 
L 242.089847 53.142288 
L 244.975938 56.847699 
L 246.418983 59.592037 
L 247.862028 61.113265 
L 249.305074 63.184856 
L 250.748119 65.522407 
L 252.191164 66.450129 
L 255.077255 70.012351 
L 256.520301 69.765613 
L 259.406391 68.249878 
L 260.849437 66.78866 
L 262.292482 64.726479 
L 265.178573 60.941448 
L 266.621618 60.227507 
L 268.064663 60.143562 
L 269.507709 59.295083 
L 270.950754 58.8424 
L 272.393799 58.839259 
L 273.836845 56.429141 
L 275.27989 55.702256 
L 276.722935 55.47827 
L 278.165981 55.46494 
L 281.052071 57.494552 
L 282.495117 57.531038 
L 283.938162 58.139846 
L 285.381207 57.834261 
L 286.824253 56.839064 
L 288.267298 56.364022 
L 289.710343 56.405602 
L 291.153389 55.624979 
L 292.596434 55.691673 
L 294.039479 54.756495 
L 295.482525 54.226139 
L 296.92557 55.256253 
L 299.811661 55.209956 
L 301.254706 56.371867 
L 302.697752 57.748346 
L 304.140797 58.424236 
L 305.583842 58.816891 
L 307.026888 59.021272 
L 308.469933 59.35432 
L 309.912978 59.169156 
L 311.356024 59.795614 
L 311.356024 59.795614 
" clip-path="url(#pa244386fb1)" style="fill: none; stroke: #000080; stroke-opacity: 0.9; stroke-width: 1.5; stroke-linecap: square"/>
   </g>
   <g id="patch_3">
    <path d="M 24.19 170.545197 
L 24.19 36.24 
" style="fill: none; stroke: #000000; stroke-width: 0.8; stroke-linejoin: miter; stroke-linecap: square"/>
   </g>
   <g id="patch_4">
    <path d="M 311.356024 170.545197 
L 311.356024 36.24 
" style="fill: none; stroke: #000000; stroke-width: 0.8; stroke-linejoin: miter; stroke-linecap: square"/>
   </g>
   <g id="patch_5">
    <path d="M 24.19 170.545197 
L 311.356024 170.545197 
" style="fill: none; stroke: #000000; stroke-width: 0.8; stroke-linejoin: miter; stroke-linecap: square"/>
   </g>
   <g id="patch_6">
    <path d="M 24.19 36.24 
L 311.356024 36.24 
" style="fill: none; stroke: #000000; stroke-width: 0.8; stroke-linejoin: miter; stroke-linecap: square"/>
   </g>
   <g id="text_9">
    <text style="font-size: 12px; font-family: 'DejaVu Sans', 'Bitstream Vera Sans', 'Computer Modern Sans Serif', 'Lucida Grande', 'Verdana', 'Geneva', 'Lucid', 'Arial', 'Helvetica', 'Avant Garde', sans-serif; text-anchor: middle" x="167.773012" y="30.24" transform="rotate(-0 167.773012 30.24)">predicted_genes_TSS.filtered_by_geneid.robust.bed</text>
   </g>
   <g id="legend_1">
    <g id="line2d_10">
     <path d="M 31.687 47.150998 
L 40.017 47.150998 
L 48.347 47.150998 
" style="fill: none; stroke: #000080; stroke-opacity: 0.9; stroke-width: 1.5; stroke-linecap: square"/>
    </g>
    <g id="text_10">
     <text style="font-size: 8.33px; font-family: 'DejaVu Sans', 'Bitstream Vera Sans', 'Computer Modern Sans Serif', 'Lucida Grande', 'Verdana', 'Geneva', 'Lucid', 'Arial', 'Helvetica', 'Avant Garde', sans-serif; text-anchor: start" x="55.011" y="50.066498" transform="rotate(-0 55.011 50.066498)">RNA</text>
    </g>
   </g>
  </g>
  <g id="axes_2">
   <g id="patch_7">
    <path d="M 325.656024 170.545197 
L 612.822047 170.545197 
L 612.822047 36.24 
L 325.656024 36.24 
z
" style="fill: #ffffff"/>
   </g>
   <g id="matplotlib.axis_3">
    <g id="xtick_4">
     <g id="line2d_11">
      <g>
       <use xlink:href="#mc6d8fe3921" x="325.656024" y="170.545197" style="stroke: #000000; stroke-width: 0.8"/>
      </g>
     </g>
     <g id="text_11">
      <text style="font-size: 10px; font-family: 'DejaVu Sans', 'Bitstream Vera Sans', 'Computer Modern Sans Serif', 'Lucida Grande', 'Verdana', 'Geneva', 'Lucid', 'Arial', 'Helvetica', 'Avant Garde', sans-serif; text-anchor: start" x="325.656024" y="185.143634" transform="rotate(-0 325.656024 185.143634)">-1.0</text>
     </g>
    </g>
    <g id="xtick_5">
     <g id="line2d_12">
      <g>
       <use xlink:href="#mc6d8fe3921" x="469.239035" y="170.545197" style="stroke: #000000; stroke-width: 0.8"/>
      </g>
     </g>
     <g id="text_12">
      <text style="font-size: 10px; font-family: 'DejaVu Sans', 'Bitstream Vera Sans', 'Computer Modern Sans Serif', 'Lucida Grande', 'Verdana', 'Geneva', 'Lucid', 'Arial', 'Helvetica', 'Avant Garde', sans-serif; text-anchor: middle" x="469.239035" y="185.143634" transform="rotate(-0 469.239035 185.143634)">TSS</text>
     </g>
    </g>
    <g id="xtick_6">
     <g id="line2d_13">
      <g>
       <use xlink:href="#mc6d8fe3921" x="612.822047" y="170.545197" style="stroke: #000000; stroke-width: 0.8"/>
      </g>
     </g>
     <g id="text_13">
      <text style="font-size: 10px; font-family: 'DejaVu Sans', 'Bitstream Vera Sans', 'Computer Modern Sans Serif', 'Lucida Grande', 'Verdana', 'Geneva', 'Lucid', 'Arial', 'Helvetica', 'Avant Garde', sans-serif; text-anchor: end" x="612.822047" y="185.143634" transform="rotate(-0 612.822047 185.143634)">1.0Kb</text>
     </g>
    </g>
   </g>
   <g id="matplotlib.axis_4">
    <g id="ytick_6">
     <g id="line2d_14">
      <g>
       <use xlink:href="#m97711af8bd" x="325.656024" y="146.334779" style="stroke: #000000; stroke-width: 0.8"/>
      </g>
     </g>
    </g>
    <g id="ytick_7">
     <g id="line2d_15">
      <g>
       <use xlink:href="#m97711af8bd" x="325.656024" y="121.177926" style="stroke: #000000; stroke-width: 0.8"/>
      </g>
     </g>
    </g>
    <g id="ytick_8">
     <g id="line2d_16">
      <g>
       <use xlink:href="#m97711af8bd" x="325.656024" y="96.021074" style="stroke: #000000; stroke-width: 0.8"/>
      </g>
     </g>
    </g>
    <g id="ytick_9">
     <g id="line2d_17">
      <g>
       <use xlink:href="#m97711af8bd" x="325.656024" y="70.864222" style="stroke: #000000; stroke-width: 0.8"/>
      </g>
     </g>
    </g>
    <g id="ytick_10">
     <g id="line2d_18">
      <g>
       <use xlink:href="#m97711af8bd" x="325.656024" y="45.70737" style="stroke: #000000; stroke-width: 0.8"/>
      </g>
     </g>
    </g>
   </g>
   <g id="line2d_19">
    <path d="M 325.656024 135.50556 
L 327.099069 136.370769 
L 329.98516 136.409447 
L 335.757341 141.146246 
L 338.643432 141.962334 
L 340.086477 141.669936 
L 341.529522 141.529926 
L 345.858658 142.70958 
L 347.301704 142.766823 
L 348.744749 143.128844 
L 351.63084 143.69353 
L 353.073885 144.214127 
L 355.959976 144.940487 
L 357.403021 145.550811 
L 360.289112 146.43652 
L 361.732157 147.000047 
L 363.175203 147.872993 
L 364.618248 148.5951 
L 367.504339 149.497049 
L 368.947384 149.240621 
L 373.27652 149.887693 
L 374.719565 150.835284 
L 376.162611 151.410796 
L 379.048701 151.995983 
L 380.491747 152.55487 
L 383.377837 152.934296 
L 386.263928 153.067732 
L 387.706973 153.174867 
L 390.593064 154.373476 
L 393.479155 155.661427 
L 394.9222 156.526247 
L 396.365246 156.989214 
L 400.694382 157.419309 
L 406.466563 158.598188 
L 409.352654 159.61308 
L 412.238744 160.112789 
L 418.010926 160.74168 
L 420.897016 161.498982 
L 423.783107 161.785579 
L 425.226152 161.782873 
L 428.112243 162.541333 
L 429.555288 162.412536 
L 432.441379 162.992305 
L 438.213561 163.992115 
L 448.314878 164.86506 
L 451.200969 165.35162 
L 452.644014 165.201939 
L 461.302286 165.971616 
L 464.188377 166.722341 
L 467.074467 167.176023 
L 468.517513 167.092867 
L 469.960558 166.337501 
L 471.403603 165.329959 
L 474.289694 162.991147 
L 475.732739 162.306173 
L 477.175785 161.853651 
L 480.061876 161.387204 
L 482.947966 161.713252 
L 485.834057 161.476161 
L 487.277102 160.996563 
L 490.163193 160.382756 
L 493.049284 160.238879 
L 495.935374 159.731818 
L 498.821465 159.342726 
L 503.150601 157.997145 
L 504.593646 157.584459 
L 506.036692 157.296702 
L 507.479737 157.134257 
L 508.922782 156.661622 
L 511.808873 155.529538 
L 514.694964 154.797379 
L 516.138009 154.720796 
L 517.581054 155.031761 
L 519.0241 155.019773 
L 521.910191 154.231918 
L 524.796281 153.327643 
L 527.682372 152.82368 
L 529.125417 152.867385 
L 532.011508 151.830447 
L 533.454553 151.486994 
L 534.897599 150.999276 
L 536.340644 150.872414 
L 537.783689 151.046075 
L 539.226735 150.840312 
L 540.66978 150.141801 
L 542.112825 149.254547 
L 543.555871 147.990574 
L 544.998916 146.093071 
L 546.441961 144.620627 
L 550.771097 139.114536 
L 552.214143 137.979745 
L 555.100233 136.003339 
L 557.986324 134.643061 
L 559.429369 134.240042 
L 560.872415 133.653698 
L 565.201551 130.304631 
L 566.644596 128.970266 
L 570.973732 124.419121 
L 573.859823 122.310439 
L 575.302868 121.495122 
L 578.188959 120.731632 
L 579.632004 119.842057 
L 581.07505 118.664339 
L 582.518095 117.674202 
L 583.96114 115.964668 
L 585.404186 115.810728 
L 586.847231 115.900845 
L 588.290276 115.621981 
L 589.733322 115.544624 
L 591.176367 114.809372 
L 592.619412 113.912452 
L 594.062458 112.698367 
L 595.505503 111.103322 
L 596.948548 110.10545 
L 599.834639 107.421251 
L 601.277684 106.469788 
L 602.72073 106.703783 
L 604.163775 105.261127 
L 605.606821 104.012232 
L 607.049866 103.870284 
L 609.935957 102.378899 
L 611.379002 100.909935 
L 612.822047 99.792547 
L 612.822047 99.792547 
" clip-path="url(#pa50c300844)" style="fill: none; stroke: #7dff7a; stroke-opacity: 0.9; stroke-width: 1.5; stroke-linecap: square"/>
   </g>
   <g id="patch_8">
    <path d="M 325.656024 170.545197 
L 325.656024 36.24 
" style="fill: none; stroke: #000000; stroke-width: 0.8; stroke-linejoin: miter; stroke-linecap: square"/>
   </g>
   <g id="patch_9">
    <path d="M 612.822047 170.545197 
L 612.822047 36.24 
" style="fill: none; stroke: #000000; stroke-width: 0.8; stroke-linejoin: miter; stroke-linecap: square"/>
   </g>
   <g id="patch_10">
    <path d="M 325.656024 170.545197 
L 612.822047 170.545197 
" style="fill: none; stroke: #000000; stroke-width: 0.8; stroke-linejoin: miter; stroke-linecap: square"/>
   </g>
   <g id="patch_11">
    <path d="M 325.656024 36.24 
L 612.822047 36.24 
" style="fill: none; stroke: #000000; stroke-width: 0.8; stroke-linejoin: miter; stroke-linecap: square"/>
   </g>
   <g id="text_14">
    <text style="font-size: 12px; font-family: 'DejaVu Sans', 'Bitstream Vera Sans', 'Computer Modern Sans Serif', 'Lucida Grande', 'Verdana', 'Geneva', 'Lucid', 'Arial', 'Helvetica', 'Avant Garde', sans-serif; text-anchor: middle" x="469.239035" y="30.24" transform="rotate(-0 469.239035 30.24)">TSS_5UTRgt500.fromGFF.bed</text>
   </g>
  </g>
 </g>
 <defs>
  <clipPath id="pa244386fb1">
   <rect x="24.19" y="36.24" width="287.166024" height="134.305197"/>
  </clipPath>
  <clipPath id="pa50c300844">
   <rect x="325.656024" y="36.24" width="287.166024" height="134.305197"/>
  </clipPath>
 </defs>
</svg>
